<svg xmlns="http://www.w3.org/2000/svg" width="375" viewBox="0 0 375 375" height="375" version="1.0"><defs><clipPath id="a"><path d="M 182 90 L 317.097656 90 L 317.097656 226 L 182 226 Z M 182 90"/></clipPath><clipPath id="b"><path d="M 128 37.5 L 203 37.5 L 203 84 L 128 84 Z M 128 37.5"/></clipPath><clipPath id="c"><path d="M 214 37.5 L 274 37.5 L 274 95 L 214 95 Z M 214 37.5"/></clipPath><clipPath id="d"><path d="M 57.773438 37.5 L 274 37.5 L 274 331.496094 L 57.773438 331.496094 Z M 57.773438 37.5"/></clipPath></defs><g clip-path="url(#a)"><path d="M 292.929688 95.058594 C 291.914062 95.058594 290.921875 95.453125 290.230469 96.148438 L 187.9375 198.605469 L 208.804688 219.503906 L 311.109375 117.058594 C 311.824219 116.332031 312.21875 115.371094 312.21875 114.34375 C 312.21875 113.328125 311.824219 112.367188 311.109375 111.652344 L 295.628906 96.148438 C 294.9375 95.453125 293.957031 95.058594 292.929688 95.058594 Z M 208.804688 225.398438 C 208.160156 225.398438 207.535156 225.132812 207.085938 224.679688 L 182.769531 200.328125 C 182.308594 199.863281 182.054688 199.25 182.054688 198.605469 C 182.054688 197.945312 182.308594 197.332031 182.769531 196.871094 L 286.78125 92.691406 C 288.417969 91.050781 290.609375 90.148438 292.929688 90.148438 C 295.246094 90.148438 297.441406 91.050781 299.078125 92.691406 L 314.546875 108.195312 C 316.199219 109.835938 317.097656 112.019531 317.097656 114.34375 C 317.097656 116.675781 316.199219 118.859375 314.546875 120.5 L 210.523438 224.679688 C 210.074219 225.144531 209.453125 225.398438 208.804688 225.398438"/></g><path d="M 177.578125 243.386719 C 176.929688 243.386719 176.320312 243.132812 175.859375 242.671875 L 164.804688 231.601562 C 164.101562 230.898438 163.894531 229.859375 164.277344 228.945312 L 173.457031 206.460938 C 173.585938 206.160156 173.757812 205.894531 173.988281 205.664062 L 182.769531 196.871094 C 183.230469 196.421875 183.839844 196.167969 184.488281 196.167969 C 185.144531 196.167969 185.757812 196.421875 186.207031 196.871094 C 187.164062 197.832031 187.164062 199.378906 186.207031 200.328125 L 177.785156 208.761719 L 169.398438 229.304688 L 178.152344 238.070312 L 198.664062 229.671875 L 207.085938 221.226562 C 207.546875 220.777344 208.160156 220.523438 208.804688 220.523438 C 209.453125 220.523438 210.074219 220.777344 210.523438 221.226562 C 211.480469 222.1875 211.480469 223.734375 210.523438 224.679688 L 201.757812 233.472656 C 201.527344 233.691406 201.25 233.878906 200.960938 233.992188 L 178.5 243.203125 C 178.199219 243.328125 177.886719 243.386719 177.578125 243.386719"/><path d="M 160.445312 249.476562 C 159.800781 249.476562 159.1875 249.222656 158.726562 248.757812 C 158.265625 248.296875 158.011719 247.683594 158.011719 247.039062 C 158.011719 246.378906 158.265625 245.765625 158.726562 245.304688 L 170.332031 233.683594 C 170.792969 233.230469 171.40625 232.976562 172.050781 232.976562 C 172.707031 232.976562 173.320312 233.230469 173.769531 233.683594 C 174.230469 234.144531 174.484375 234.757812 174.484375 235.414062 C 174.484375 236.0625 174.230469 236.675781 173.78125 237.136719 L 162.164062 248.757812 C 161.714844 249.222656 161.089844 249.476562 160.445312 249.476562"/><path d="M 260.121094 205.699219 C 259.460938 205.699219 258.851562 205.445312 258.390625 204.980469 C 257.441406 204.035156 257.441406 202.488281 258.390625 201.539062 L 301.363281 158.5 C 305.976562 153.878906 305.976562 146.359375 301.363281 141.75 L 295.628906 136.007812 C 294.683594 135.046875 294.683594 133.5 295.628906 132.550781 C 296.089844 132.089844 296.703125 131.835938 297.347656 131.835938 C 298.003906 131.835938 298.617188 132.089844 299.078125 132.550781 L 304.8125 138.292969 C 311.316406 144.8125 311.316406 155.429688 304.8125 161.945312 L 261.839844 204.980469 C 261.378906 205.445312 260.765625 205.699219 260.121094 205.699219"/><path d="M 276.144531 157.957031 C 275.484375 157.957031 274.886719 157.703125 274.414062 157.242188 L 250.09375 132.886719 C 249.644531 132.425781 249.390625 131.8125 249.390625 131.164062 C 249.390625 130.519531 249.644531 129.894531 250.09375 129.445312 C 250.566406 128.980469 251.167969 128.726562 251.824219 128.726562 C 252.472656 128.726562 253.082031 128.980469 253.542969 129.445312 L 277.863281 153.800781 C 278.324219 154.25 278.578125 154.863281 278.578125 155.519531 C 278.578125 156.167969 278.324219 156.78125 277.863281 157.242188 C 277.402344 157.703125 276.789062 157.957031 276.144531 157.957031"/><g clip-path="url(#b)"><path d="M 165.589844 61.484375 C 173.261719 61.484375 180.160156 66.0625 183.148438 73.144531 C 184.453125 76.226562 187.175781 78.132812 190.265625 78.132812 C 194.59375 78.132812 197.984375 74.738281 197.984375 70.566406 L 197.984375 44.6875 C 197.984375 43.414062 196.945312 42.375 195.675781 42.375 L 135.492188 42.375 C 134.222656 42.375 133.195312 43.414062 133.195312 44.6875 L 133.195312 70.566406 C 133.195312 74.738281 136.589844 78.132812 140.765625 78.132812 C 143.949219 78.132812 146.75 76.183594 148.019531 73.144531 C 151.019531 66.0625 157.90625 61.484375 165.589844 61.484375 Z M 190.265625 83.023438 C 185.261719 83.023438 180.714844 79.890625 178.660156 75.050781 C 176.433594 69.78125 171.300781 66.371094 165.589844 66.371094 C 159.867188 66.371094 154.746094 69.78125 152.507812 75.050781 C 150.464844 79.890625 145.910156 83.023438 140.914062 83.023438 C 133.898438 83.023438 128.316406 77.429688 128.316406 70.566406 L 128.316406 44.6875 C 128.316406 40.722656 131.535156 37.5 135.492188 37.5 L 195.675781 37.5 C 199.632812 37.5 202.851562 40.722656 202.851562 44.6875 L 202.851562 70.566406 C 202.851562 77.429688 197.269531 83.023438 190.417969 83.023438 L 190.265625 83.023438"/></g><g clip-path="url(#c)"><path d="M 270.976562 94.507812 C 269.625 94.507812 268.53125 93.410156 268.53125 92.066406 L 268.53125 42.375 L 216.453125 42.375 C 215.117188 42.375 214.019531 41.289062 214.019531 39.9375 C 214.019531 38.597656 215.117188 37.5 216.453125 37.5 L 270.976562 37.5 C 272.3125 37.5 273.410156 38.597656 273.410156 39.9375 L 273.410156 92.066406 C 273.410156 93.410156 272.3125 94.507812 270.976562 94.507812"/></g><g clip-path="url(#d)"><path d="M 60.207031 331.496094 C 58.867188 331.496094 57.773438 330.410156 57.773438 329.058594 L 57.773438 39.9375 C 57.773438 38.597656 58.867188 37.5 60.207031 37.5 L 114.714844 37.5 C 116.066406 37.5 117.148438 38.597656 117.148438 39.9375 C 117.148438 41.289062 116.066406 42.375 114.714844 42.375 L 62.640625 42.375 L 62.640625 326.621094 L 225.996094 326.621094 C 232.269531 326.621094 237.371094 321.5 237.371094 315.226562 L 237.371094 297.851562 C 237.371094 296.511719 238.464844 295.414062 239.816406 295.414062 L 257.15625 295.414062 C 263.429688 295.414062 268.53125 290.304688 268.53125 284.019531 L 268.53125 211.105469 C 268.53125 209.753906 269.625 208.667969 270.976562 208.667969 C 272.3125 208.667969 273.410156 209.753906 273.410156 211.105469 L 273.410156 284.019531 C 273.410156 293 266.117188 300.300781 257.15625 300.300781 L 242.25 300.300781 L 242.25 315.226562 C 242.25 324.195312 234.957031 331.496094 225.996094 331.496094 L 60.207031 331.496094"/></g><path d="M 96.671875 245.6875 L 123.851562 245.6875 L 123.851562 218.464844 L 96.671875 218.464844 Z M 94.238281 250.5625 C 92.898438 250.5625 91.804688 249.476562 91.804688 248.125 L 91.804688 216.027344 C 91.804688 214.6875 92.898438 213.589844 94.238281 213.589844 L 126.285156 213.589844 C 127.625 213.589844 128.71875 214.6875 128.71875 216.027344 L 128.71875 248.125 C 128.71875 249.476562 127.625 250.5625 126.285156 250.5625 L 94.238281 250.5625"/><path d="M 96.671875 189.328125 L 123.851562 189.328125 L 123.851562 162.117188 L 96.671875 162.117188 Z M 94.238281 194.214844 C 92.898438 194.214844 91.804688 193.117188 91.804688 191.777344 L 91.804688 159.679688 C 91.804688 158.328125 92.898438 157.230469 94.238281 157.230469 L 126.285156 157.230469 C 127.625 157.230469 128.71875 158.328125 128.71875 159.679688 L 128.71875 191.777344 C 128.71875 193.117188 127.625 194.214844 126.285156 194.214844 L 94.238281 194.214844"/><path d="M 96.671875 132.980469 L 123.851562 132.980469 L 123.851562 105.757812 L 96.671875 105.757812 Z M 94.238281 137.855469 C 92.898438 137.855469 91.804688 136.769531 91.804688 135.417969 L 91.804688 103.320312 C 91.804688 101.980469 92.898438 100.882812 94.238281 100.882812 L 126.285156 100.882812 C 127.625 100.882812 128.71875 101.980469 128.71875 103.320312 L 128.71875 135.417969 C 128.71875 136.769531 127.625 137.855469 126.285156 137.855469 L 94.238281 137.855469"/><path fill="#02A6C8" d="M 128.894531 315.746094 L 73.496094 260.277344 L 73.496094 315.746094 Z M 128.894531 315.746094"/></svg>