<svg xmlns="http://www.w3.org/2000/svg" width="375" viewBox="0 0 375 375" height="375" version="1.0"><defs><clipPath id="a"><path d="M 73 37.5 L 294 37.5 L 294 163 L 73 163 Z M 73 37.5"/></clipPath><clipPath id="b"><path d="M 123.015625 292 L 153 292 L 153 337.472656 L 123.015625 337.472656 Z M 123.015625 292"/></clipPath><clipPath id="c"><path d="M 71.753906 292 L 101.90625 292 L 101.90625 337.472656 L 71.753906 337.472656 Z M 71.753906 292"/></clipPath><clipPath id="d"><path d="M 198.40625 292 L 228 292 L 228 337.472656 L 198.40625 337.472656 Z M 198.40625 292"/></clipPath><clipPath id="e"><path d="M 273 292 L 302.921875 292 L 302.921875 337.472656 L 273 337.472656 Z M 273 292"/></clipPath></defs><g clip-path="url(#a)"><path fill="#040606" d="M 185.695312 160.914062 C 184.777344 160.144531 163.078125 142.261719 113.414062 140.046875 L 110.707031 139.925781 L 110.707031 97.636719 C 110.707031 96.070312 111.980469 94.796875 113.546875 94.796875 C 115.101562 94.796875 116.371094 96.070312 116.371094 97.636719 L 116.371094 134.503906 L 117.21875 134.550781 C 158.035156 137.039062 179.640625 149.535156 187.039062 154.792969 L 187.554688 155.171875 L 188.085938 154.792969 C 195.484375 149.535156 217.085938 137.039062 257.902344 134.550781 L 258.75 134.503906 L 258.75 82.59375 L 187.554688 103.15625 L 73.964844 70.332031 L 187.554688 37.5 L 291.722656 67.597656 C 293.21875 68.035156 294.089844 69.613281 293.664062 71.125 C 293.300781 72.339844 292.191406 73.164062 290.898438 73.164062 C 290.636719 73.164062 290.378906 73.128906 290.117188 73.058594 L 187.554688 43.417969 L 94.414062 70.332031 L 187.554688 97.25 L 264.417969 75.039062 L 264.417969 139.925781 L 261.707031 140.046875 C 212.035156 142.261719 190.335938 160.144531 189.441406 160.902344 L 187.566406 162.539062 L 185.695312 160.914062"/></g><path fill="#040606" d="M 290.933594 127.347656 C 289.363281 127.347656 288.105469 126.074219 288.105469 124.507812 L 288.105469 70.332031 C 288.105469 68.765625 289.363281 67.492188 290.933594 67.492188 C 292.5 67.492188 293.757812 68.765625 293.757812 70.332031 L 293.757812 124.507812 C 293.757812 126.074219 292.5 127.347656 290.933594 127.347656"/><path fill="#040606" d="M 187.554688 196.222656 C 186 196.222656 184.730469 194.949219 184.730469 193.390625 L 184.730469 174.695312 C 184.730469 173.125 186 171.863281 187.554688 171.863281 C 189.121094 171.863281 190.394531 173.125 190.394531 174.695312 L 190.394531 193.390625 C 190.394531 194.949219 189.121094 196.222656 187.554688 196.222656"/><path fill="#040606" d="M 187.554688 232.664062 C 186 232.664062 184.730469 231.390625 184.730469 229.832031 L 184.730469 193.390625 C 184.730469 191.824219 186 190.5625 187.554688 190.5625 C 189.121094 190.5625 190.394531 191.824219 190.394531 193.390625 L 190.394531 229.832031 C 190.394531 231.390625 189.121094 232.664062 187.554688 232.664062"/><path fill="#040606" d="M 263.144531 232.664062 C 261.589844 232.664062 260.316406 231.390625 260.316406 229.832031 L 260.316406 208.542969 C 260.316406 202.175781 255.144531 196.988281 248.773438 196.988281 L 126.351562 196.988281 C 119.976562 196.988281 114.804688 202.175781 114.804688 208.542969 L 114.804688 229.832031 C 114.804688 231.390625 113.535156 232.664062 111.96875 232.664062 C 110.414062 232.664062 109.140625 231.390625 109.140625 229.832031 L 109.140625 208.542969 C 109.140625 199.050781 116.855469 191.316406 126.351562 191.316406 L 248.773438 191.316406 C 258.265625 191.316406 265.984375 199.050781 265.984375 208.542969 L 265.984375 229.832031 C 265.984375 231.390625 264.710938 232.664062 263.144531 232.664062"/><g clip-path="url(#b)"><path fill="#040606" d="M 149.753906 337.472656 C 148.1875 337.472656 146.917969 336.199219 146.917969 334.628906 L 146.917969 325.222656 C 146.917969 319.871094 144.597656 314.824219 140.542969 311.371094 L 124.277344 297.457031 C 123.097656 296.433594 122.957031 294.628906 123.96875 293.4375 C 124.511719 292.824219 125.3125 292.460938 126.136719 292.460938 C 126.820312 292.460938 127.46875 292.695312 127.988281 293.132812 L 144.230469 307.042969 C 149.542969 311.59375 152.582031 318.21875 152.582031 325.222656 L 152.582031 334.628906 C 152.582031 336.199219 151.308594 337.472656 149.753906 337.472656"/></g><g clip-path="url(#c)"><path fill="#040606" d="M 74.578125 337.472656 C 73.023438 337.472656 71.753906 336.199219 71.753906 334.628906 L 71.753906 325.339844 C 71.753906 318.265625 74.863281 311.59375 80.28125 307.03125 L 96.832031 293.121094 C 97.335938 292.695312 97.984375 292.460938 98.65625 292.460938 C 99.492188 292.460938 100.28125 292.824219 100.824219 293.460938 C 101.304688 294.050781 101.542969 294.792969 101.472656 295.546875 C 101.414062 296.292969 101.058594 296.976562 100.480469 297.457031 L 83.921875 311.382812 C 79.785156 314.859375 77.417969 319.953125 77.417969 325.339844 L 77.417969 334.628906 C 77.417969 336.199219 76.144531 337.472656 74.578125 337.472656"/></g><path fill="#040606" d="M 112.390625 250.832031 C 101.71875 250.832031 93.039062 261.441406 93.039062 274.480469 C 93.039062 287.53125 101.71875 298.140625 112.390625 298.140625 C 123.074219 298.140625 131.757812 287.53125 131.757812 274.480469 C 131.757812 261.441406 123.074219 250.832031 112.390625 250.832031 Z M 112.390625 303.8125 C 98.597656 303.8125 87.371094 290.65625 87.371094 274.480469 C 87.371094 258.316406 98.597656 245.171875 112.390625 245.171875 C 126.195312 245.171875 137.421875 258.316406 137.421875 274.480469 C 137.421875 290.65625 126.195312 303.8125 112.390625 303.8125"/><g clip-path="url(#d)"><path fill="#040606" d="M 224.90625 337.472656 C 223.351562 337.472656 222.082031 336.199219 222.082031 334.628906 L 222.082031 325.222656 C 222.082031 319.871094 219.761719 314.824219 215.695312 311.371094 L 199.453125 297.457031 C 198.863281 296.953125 198.511719 296.265625 198.464844 295.5 C 198.394531 294.746094 198.640625 294.027344 199.121094 293.460938 C 199.664062 292.8125 200.453125 292.449219 201.289062 292.449219 C 201.960938 292.449219 202.609375 292.683594 203.117188 293.132812 L 219.394531 307.042969 C 224.695312 311.59375 227.746094 318.21875 227.746094 325.222656 L 227.746094 334.628906 C 227.746094 336.199219 226.476562 337.472656 224.90625 337.472656"/></g><path fill="#040606" d="M 149.753906 328.183594 C 148.1875 328.183594 146.917969 326.910156 146.917969 325.339844 C 146.917969 318.253906 150.027344 311.582031 155.433594 307.03125 L 171.996094 293.109375 C 172.511719 292.683594 173.160156 292.460938 173.820312 292.460938 C 174.667969 292.460938 175.457031 292.824219 176 293.460938 C 177 294.664062 176.835938 296.46875 175.648438 297.46875 L 159.085938 311.394531 C 154.949219 314.859375 152.582031 319.953125 152.582031 325.339844 C 152.582031 326.910156 151.308594 328.183594 149.753906 328.183594"/><path fill="#040606" d="M 187.554688 250.832031 C 176.882812 250.832031 168.191406 261.441406 168.191406 274.480469 C 168.191406 287.53125 176.882812 298.140625 187.554688 298.140625 C 198.238281 298.140625 206.921875 287.53125 206.921875 274.480469 C 206.921875 261.441406 198.238281 250.832031 187.554688 250.832031 Z M 187.554688 303.8125 C 173.761719 303.8125 162.523438 290.65625 162.523438 274.480469 C 162.523438 258.316406 173.761719 245.171875 187.554688 245.171875 C 201.347656 245.171875 212.585938 258.316406 212.585938 274.480469 C 212.585938 290.65625 201.347656 303.8125 187.554688 303.8125"/><g clip-path="url(#e)"><path fill="#040606" d="M 300.085938 337.472656 C 298.519531 337.472656 297.246094 336.199219 297.246094 334.628906 L 297.246094 325.222656 C 297.246094 319.882812 294.925781 314.824219 290.871094 311.371094 L 274.617188 297.457031 C 274.039062 296.953125 273.6875 296.265625 273.628906 295.5 C 273.570312 294.746094 273.804688 294.027344 274.289062 293.449219 C 274.828125 292.8125 275.617188 292.449219 276.453125 292.449219 C 277.125 292.449219 277.785156 292.683594 278.292969 293.132812 L 294.558594 307.042969 C 299.871094 311.59375 302.910156 318.21875 302.910156 325.222656 L 302.910156 334.628906 C 302.910156 336.199219 301.640625 337.472656 300.085938 337.472656"/></g><path fill="#040606" d="M 224.90625 328.183594 C 223.351562 328.183594 222.082031 326.910156 222.082031 325.339844 C 222.082031 318.265625 225.191406 311.59375 230.609375 307.03125 L 247.160156 293.121094 C 247.664062 292.695312 248.3125 292.460938 248.984375 292.460938 C 249.820312 292.460938 250.609375 292.824219 251.140625 293.460938 C 251.636719 294.050781 251.871094 294.792969 251.800781 295.546875 C 251.730469 296.292969 251.386719 296.976562 250.800781 297.457031 L 234.25 311.382812 C 230.113281 314.859375 227.746094 319.953125 227.746094 325.339844 C 227.746094 326.910156 226.476562 328.183594 224.90625 328.183594"/><path fill="#040606" d="M 262.71875 250.832031 C 252.046875 250.832031 243.355469 261.441406 243.355469 274.480469 C 243.355469 287.53125 252.046875 298.140625 262.71875 298.140625 C 273.390625 298.140625 282.085938 287.53125 282.085938 274.480469 C 282.085938 261.441406 273.390625 250.832031 262.71875 250.832031 Z M 262.71875 303.8125 C 248.925781 303.8125 237.699219 290.65625 237.699219 274.480469 C 237.699219 258.316406 248.925781 245.171875 262.71875 245.171875 C 276.527344 245.171875 287.75 258.316406 287.75 274.480469 C 287.75 290.65625 276.527344 303.8125 262.71875 303.8125"/><path fill="#02A6C8" d="M 262.71875 288.78125 C 257.300781 288.78125 252.707031 282.238281 252.707031 274.492188 C 252.707031 266.746094 257.300781 260.203125 262.71875 260.203125 C 268.152344 260.203125 272.734375 266.746094 272.734375 274.492188 C 272.734375 282.238281 268.152344 288.78125 262.71875 288.78125"/><path fill="#BF1B2C" d="M 187.554688 288.78125 C 182.136719 288.78125 177.554688 282.238281 177.554688 274.492188 C 177.554688 266.746094 182.136719 260.203125 187.554688 260.203125 C 192.984375 260.203125 197.566406 266.746094 197.566406 274.492188 C 197.566406 282.238281 192.984375 288.78125 187.554688 288.78125"/><path fill="#02A6C8" d="M 112.390625 288.78125 C 106.972656 288.78125 102.390625 282.238281 102.390625 274.492188 C 102.390625 266.746094 106.972656 260.203125 112.390625 260.203125 C 117.820312 260.203125 122.402344 266.746094 122.402344 274.492188 C 122.402344 282.238281 117.820312 288.78125 112.390625 288.78125"/></svg>